<?xml version="1.0" encoding="UTF-8"?><svg id="uuid-ccf33a5a-098d-4020-af92-46f8c9fee9b0" xmlns="http://www.w3.org/2000/svg" viewBox="0 0 16 16"><polygon points="8.99 7 7 7 7 8.98 8.56 10.55 8.56 8.56 10.55 8.56 8.99 7" style="fill:#e41e2a;"/><polygon points="9.42 11.41 9.42 9.42 11.42 9.42 15.99 13.99 15.99 15.99 14 15.99 9.42 11.41" style="fill:#e41e2a;"/><path d="M7.99.99C4.13.99.99,4.13.99,7.99s3.14,7,7,7c.87,0,1.72-.16,2.52-.47l-2.22-2.21c-.1,0-.2.02-.3.02-2.39,0-4.33-1.94-4.33-4.33s1.94-4.33,4.33-4.33,4.33,1.94,4.33,4.33c0,.1-.01.2-.02.31,0,0,2.21,2.21,2.21,2.21.31-.8.48-1.65.48-2.52,0-3.86-3.14-7-7-7Z" fill="white" stroke-width="0.3" stroke="black"/></svg>
